<svg width="311" height="502" viewBox="0 0 311 502" fill="none" xmlns="http://www.w3.org/2000/svg">
<g clip-path="url(#clip0_2251_6)">
<path d="M68.2449 117.141C68.2449 117.141 26.8974 83.6006 45.5424 6.47461C100.686 53.3572 129.046 56.4041 133.151 91.6762" fill="#AF282F"/>
<path d="M68.2449 117.141C68.2449 117.141 26.8974 83.6006 45.5424 6.47461C100.686 53.3572 129.046 56.4041 133.151 91.6762" stroke="#E6E1E7" stroke-width="8" stroke-miterlimit="10"/>
<path d="M248.127 117.141C248.127 117.141 289.468 83.6006 270.823 6.47461C215.68 53.3572 187.319 56.4041 183.214 91.6762" fill="#AF282F"/>
<path d="M248.127 117.141C248.127 117.141 289.468 83.6006 270.823 6.47461C215.68 53.3572 187.319 56.4041 183.214 91.6762" stroke="#E6E1E7" stroke-width="8" stroke-miterlimit="10"/>
<path d="M136.156 366.527C135.442 318.757 81.2914 318.787 80.5894 366.527C80.5894 386.57 93.0293 402.822 108.372 402.822C123.716 402.822 136.156 386.57 136.156 366.527Z" fill="#AF282F" stroke="#E6E1E7" stroke-width="8" stroke-miterlimit="10"/>
<path d="M173.868 366.527C174.582 318.757 228.732 318.787 229.434 366.527C229.434 386.57 216.994 402.822 201.651 402.822C186.308 402.822 173.868 386.57 173.868 366.527Z" fill="#AF282F" stroke="#E6E1E7" stroke-width="8" stroke-miterlimit="10"/>
<path d="M213.722 376.709C198.635 331.38 249.769 313.532 266.177 358.368C272.787 377.292 266.409 396.734 251.922 401.799C237.436 406.863 220.332 395.627 213.722 376.709Z" fill="#AF282F" stroke="#E6E1E7" stroke-width="8" stroke-miterlimit="10"/>
<path d="M182.78 366.622C182.066 318.853 127.916 318.883 127.214 366.622C127.214 386.666 139.654 402.918 154.997 402.918C170.34 402.918 182.78 386.666 182.78 366.622Z" fill="#AF282F" stroke="#E6E1E7" stroke-width="8" stroke-miterlimit="10"/>
<path d="M96.4025 374.014C106.838 327.393 54.1627 314.8 42.3653 361.064C37.6951 380.56 46.0122 399.258 60.933 402.835C75.8537 406.411 91.7383 393.509 96.4025 374.014Z" fill="#AF282F" stroke="#E6E1E7" stroke-width="8" stroke-miterlimit="10"/>
<path d="M154.997 359.563C115.589 359.563 78.8699 347.215 51.5984 324.797C21.0012 299.636 4.73592 263.668 4.56934 220.784C4.74781 177.937 21.0131 141.98 51.6162 116.819C78.8877 94.3954 115.607 82.0469 155.003 82.0469C194.399 82.0469 231.13 94.3954 258.401 116.813C288.998 141.968 305.264 177.937 305.43 220.814C305.252 263.662 288.986 299.624 258.383 324.785C231.112 347.209 194.393 359.557 154.997 359.557V359.563Z" fill="#AF282F"/>
<path d="M155.021 78V85.1413C173.767 85.1413 191.996 88.0157 209.195 93.6811C226.936 99.525 242.731 108.077 256.135 119.104C285.875 143.557 301.682 178.561 301.855 220.332C301.676 262.097 285.857 297.101 256.111 321.56C242.701 332.587 226.906 341.139 209.165 346.983C191.966 352.648 173.737 355.522 154.991 355.522C136.245 355.522 118.01 352.648 100.805 346.983C83.0643 341.139 67.269 332.587 53.8593 321.566C24.1189 297.113 8.30571 262.102 8.13318 220.332C8.31166 178.567 24.1308 143.569 53.8712 119.116C67.2809 108.095 83.0762 99.5369 100.817 93.6989C118.016 88.0335 136.245 85.1591 154.991 85.1591L155.009 78.0179M155.003 78C78.2038 78.006 1.3867 125.448 1 220.32C1.3748 315.216 78.18 362.652 154.997 362.652C231.814 362.652 308.607 315.204 309 220.326C308.625 125.436 231.82 77.9881 155.003 78Z" fill="#E6E1E7"/>
<path d="M66.6207 158.626C82.3387 153.562 119.2 150.979 148.762 164.571C149.506 164.91 150.125 163.922 149.488 163.411C130.962 148.598 72.9329 113.309 59.309 151.009C57.6432 155.609 61.9624 160.126 66.6207 158.626Z" fill="#E6E1E7" stroke="#E6E1E7" stroke-width="5" stroke-miterlimit="10"/>
<path d="M242.457 162.214C231.178 158.578 204.715 156.727 183.494 166.481C182.959 166.725 182.512 166.017 182.971 165.648C196.267 155.013 237.924 129.685 247.705 156.745C248.9 160.048 245.801 163.285 242.457 162.208V162.214Z" fill="#E6E1E7" stroke="#E6E1E7" stroke-width="5" stroke-miterlimit="10"/>
<path d="M233.682 96.7646C233.682 96.7646 247.342 85.6837 241.178 60.2012C222.961 75.6918 213.591 76.6976 212.235 88.3498" fill="#E6E1E7"/>
<path d="M233.682 96.7646C233.682 96.7646 247.342 85.6837 241.178 60.2012C222.961 75.6918 213.591 76.6976 212.235 88.3498" stroke="#026EC1" stroke-miterlimit="10"/>
<path d="M80.762 96.7646C80.762 96.7646 67.1024 85.6837 73.2659 60.2012C91.4826 75.6918 100.853 76.6976 102.209 88.3498" fill="#E6E1E7"/>
<path d="M80.762 96.7646C80.762 96.7646 67.1024 85.6837 73.2659 60.2012C91.4826 75.6918 100.853 76.6976 102.209 88.3498" stroke="#026EC1" stroke-miterlimit="10"/>
<path d="M251.75 185.507C221.843 157.073 178.163 201.2 144.562 182.728C101.495 153.978 43.2278 178.533 34.4289 229.593C19.1273 297.161 87.6154 348.222 149.113 348.114C236.657 351.947 312.754 252.623 251.756 185.507H251.75Z" fill="#E6E1E7" stroke="#E6E1E7" stroke-width="5" stroke-miterlimit="10"/>
<path d="M121.752 231.146C121.473 251.504 113.358 266.388 103.631 264.382C83.1357 262.692 79.2984 187.59 104.642 190.649C114.369 192.654 122.026 210.781 121.747 231.146H121.752Z" fill="#AF282F"/>
<path d="M84.9444 241.649C78.8762 241.566 74.444 239.15 75.0389 236.246C75.5446 230.134 97.9198 228.991 97.0096 236.549C96.4146 239.447 91.0127 241.733 84.9444 241.649Z" fill="#E6E1E7"/>
<path d="M196.029 231.146C196.309 251.504 204.424 266.388 214.151 264.382C234.646 262.692 238.483 187.59 213.139 190.649C203.412 192.654 195.756 210.781 196.035 231.146H196.029Z" fill="#AF282F"/>
<path d="M193.102 241.649C187.034 241.566 182.602 239.15 183.197 236.246C183.702 230.134 206.078 228.991 205.167 236.549C204.572 239.447 199.17 241.733 193.102 241.649Z" fill="#E6E1E7"/>
</g>
<path d="M2.31341 434.748H16.9903C21.4654 434.748 24.9671 435.632 27.4955 437.402C30.8075 439.627 32.4636 442.914 32.4636 447.263C32.4636 454.089 28.8355 458.274 21.5792 459.816C30.4789 461.459 34.9287 466.25 34.9287 474.189C34.9287 483.923 28.9745 488.79 17.0661 488.79H2.31341V487.008C4.84173 486.856 6.37136 486.287 6.90231 485.301C7.30684 484.543 7.5091 483.456 7.5091 482.04V441.498C7.5091 439.374 7.04136 438.009 6.10589 437.402C5.37267 436.897 4.10852 436.606 2.31341 436.53V434.748ZM12.098 459.057H17.142C20.3782 459.057 22.9192 457.869 24.7649 455.492C26.5347 453.343 27.4196 450.6 27.4196 447.263C27.4196 440.36 23.9432 436.909 16.9903 436.909C14.7907 436.909 13.3622 437.352 12.7048 438.237C12.3003 438.818 12.098 439.905 12.098 441.498V459.057ZM12.098 461.219V482.04C12.098 484.037 12.4899 485.301 13.2737 485.832C13.931 486.363 15.1699 486.629 16.9903 486.629C25.4854 486.629 29.733 482.482 29.733 474.189C29.733 469.537 28.3045 466.099 25.4475 463.874C23.3237 462.104 20.5552 461.219 17.142 461.219H12.098ZM58.1766 433.344C62.3736 433.344 65.8627 435.468 68.6438 439.716C72.0065 444.798 73.6878 452.155 73.6878 461.788C73.6878 469.398 72.6512 475.58 70.578 480.333C67.721 486.907 63.6125 490.194 58.2524 490.194C54.0301 490.194 50.5284 488.07 47.7473 483.822C44.4352 478.816 42.7791 471.497 42.7791 461.864C42.7791 452.231 44.4352 444.873 47.7473 439.792C50.5537 435.493 54.0301 433.344 58.1766 433.344ZM58.2524 435.658C55.3196 435.658 52.9556 437.655 51.1605 441.65C49.1378 446.15 48.1265 452.888 48.1265 461.864C48.1265 479.208 51.5018 487.88 58.2524 487.88C61.16 487.88 63.5113 485.883 65.3064 481.888C67.3291 477.312 68.3404 470.662 68.3404 461.94C68.3404 452.484 67.228 445.48 65.003 440.929C63.2079 437.415 60.9577 435.658 58.2524 435.658ZM97.0115 433.344C101.209 433.344 104.698 435.468 107.479 439.716C110.841 444.798 112.523 452.155 112.523 461.788C112.523 469.398 111.486 475.58 109.413 480.333C106.556 486.907 102.447 490.194 97.0874 490.194C92.8651 490.194 89.3634 488.07 86.5822 483.822C83.2701 478.816 81.6141 471.497 81.6141 461.864C81.6141 452.231 83.2701 444.873 86.5822 439.792C89.3887 435.493 92.8651 433.344 97.0115 433.344ZM97.0874 435.658C94.1545 435.658 91.7906 437.655 89.9955 441.65C87.9728 446.15 86.9615 452.888 86.9615 461.864C86.9615 479.208 90.3368 487.88 97.0874 487.88C99.9949 487.88 102.346 485.883 104.141 481.888C106.164 477.312 107.175 470.662 107.175 461.94C107.175 452.484 106.063 445.48 103.838 440.929C102.043 437.415 99.7927 435.658 97.0874 435.658ZM118.667 434.748H132.13V436.53C130.031 436.682 128.704 437.2 128.148 438.085C127.743 438.843 127.541 439.981 127.541 441.498V466.908L140.36 441.877C141.093 440.436 141.459 439.374 141.459 438.692C141.459 437.478 140.233 436.758 137.781 436.53V434.748H150.068V436.53C147.085 437.061 144.784 438.869 143.166 441.953L136.15 455.644L147.982 482.04C149.322 484.973 151.181 486.629 153.557 487.008V488.79H139.639V487.008C142.496 486.78 143.924 486.034 143.924 484.77C143.924 484.062 143.672 483.152 143.166 482.04L133.685 460.461L127.541 471.724V482.04C127.541 484.012 127.882 485.327 128.565 485.984C129.323 486.591 130.512 486.932 132.13 487.008V488.79H118.667V487.008C120.79 486.856 122.13 486.338 122.687 485.453C123.116 484.694 123.331 483.557 123.331 482.04V441.498C123.331 439.551 122.965 438.262 122.231 437.63C121.574 437.048 120.386 436.682 118.667 436.53V434.748ZM174.757 457.882C176.274 457.882 177.627 458.476 178.815 459.664C179.852 460.701 180.37 461.965 180.37 463.457C180.37 464.468 180.092 465.454 179.536 466.415C178.373 468.185 176.78 469.069 174.757 469.069C173.417 469.069 172.229 468.627 171.192 467.742C169.852 466.554 169.182 465.125 169.182 463.457C169.182 461.56 169.979 460.043 171.572 458.906C172.558 458.223 173.62 457.882 174.757 457.882ZM213.516 433.344C217.713 433.344 221.202 435.468 223.984 439.716C227.346 444.798 229.028 452.155 229.028 461.788C229.028 469.398 227.991 475.58 225.918 480.333C223.061 486.907 218.952 490.194 213.592 490.194C209.37 490.194 205.868 488.07 203.087 483.822C199.775 478.816 198.119 471.497 198.119 461.864C198.119 452.231 199.775 444.873 203.087 439.792C205.894 435.493 209.37 433.344 213.516 433.344ZM213.592 435.658C210.659 435.658 208.295 437.655 206.5 441.65C204.478 446.15 203.466 452.888 203.466 461.864C203.466 479.208 206.842 487.88 213.592 487.88C216.5 487.88 218.851 485.883 220.646 481.888C222.669 477.312 223.68 470.662 223.68 461.94C223.68 452.484 222.568 445.48 220.343 440.929C218.548 437.415 216.298 435.658 213.592 435.658ZM236.044 434.748H268.128V448.249H266.346C265.789 444.026 264.854 441.106 263.539 439.488C262.073 437.769 259.823 436.909 256.789 436.909H251.252C248.622 436.909 246.991 437.377 246.359 438.312C246.005 438.894 245.828 439.956 245.828 441.498V459.057H252.427C255.486 459.057 257.534 458.387 258.571 457.047C259.254 456.061 259.671 454.266 259.823 451.662H261.605V469.221H259.823C259.671 465.732 258.976 463.482 257.737 462.471C256.751 461.636 254.981 461.219 252.427 461.219H245.828V481.888C245.828 484.29 246.448 485.756 247.687 486.287C248.47 486.692 249.798 486.932 251.669 487.008V488.79H236.044V487.008C238.547 486.856 240.076 486.262 240.633 485.225C240.987 484.644 241.164 483.531 241.164 481.888V441.498C241.164 439.374 240.696 437.996 239.76 437.364C239.002 436.96 237.763 436.682 236.044 436.53V434.748ZM274.879 434.748H306.963V448.249H305.181C304.624 444.026 303.689 441.106 302.374 439.488C300.908 437.769 298.657 436.909 295.623 436.909H290.086C287.457 436.909 285.826 437.377 285.194 438.312C284.84 438.894 284.663 439.956 284.663 441.498V459.057H291.262C294.321 459.057 296.369 458.387 297.406 457.047C298.089 456.061 298.506 454.266 298.657 451.662H300.44V469.221H298.657C298.506 465.732 297.81 463.482 296.572 462.471C295.586 461.636 293.816 461.219 291.262 461.219H284.663V481.888C284.663 484.29 285.283 485.756 286.522 486.287C287.305 486.692 288.633 486.932 290.504 487.008V488.79H274.879V487.008C277.382 486.856 278.911 486.262 279.468 485.225C279.822 484.644 279.998 483.531 279.998 481.888V441.498C279.998 439.374 279.531 437.996 278.595 437.364C277.837 436.96 276.598 436.682 274.879 436.53V434.748Z" fill="white"/>
<defs>
<clipPath id="clip0_2251_6">
<rect width="308" height="407" fill="white" transform="translate(1)"/>
</clipPath>
</defs>
</svg>
