<?xml version="1.0" encoding="UTF-8"?>
<svg id="Calque_2" data-name="Calque 2" xmlns="http://www.w3.org/2000/svg" viewBox="0 0 955.44 324.1">
  <defs>
    <style>
      .cls-1 {
        fill: #fff;
      }

      .cls-2 {
        fill: #f24405;
      }
    </style>
  </defs>
  <g id="Calque_1-2" data-name="Calque 1">
    <g>
      <path class="cls-2" d="M301.68,129.19c-49.43-21.56-87.91-59.96-108.35-108.17-5.45-12.78-17.69-21.02-31.28-21.02h-.27c-13.55,0-25.79,8.24-31.24,21.02-20.39,48.21-58.79,86.61-108.17,108.17-13.77,6.03-22.37,19.36-22.37,34.75s8.55,28.72,22.37,34.8c10.04,4.37,19.63,9.45,28.72,15.26l-23.32,51.36c-1.98,4.41-.05,9.63,4.32,11.66l12.47,5.76c4.41,2.03,9.54.09,11.57-4.32l20.57-45.37c22.06,19.18,39.75,42.72,51.72,69.01,6.12,13.41,18.95,21.83,33.49,22.01,14.59-.18,27.41-8.6,33.54-22.01,12.02-26.29,29.75-49.83,51.86-69.01l20.57,45.37c2.03,4.41,7.2,6.35,11.57,4.32l12.51-5.76c4.41-2.03,6.35-7.25,4.32-11.66l-23.32-51.36c9.09-5.81,18.68-10.89,28.72-15.26,13.86-6.08,22.42-19.4,22.42-34.8s-8.6-28.72-22.42-34.75ZM112.44,151.07l44.38-99.21c.99-2.16,3.06-3.24,5.09-3.15,2.03-.09,4.1.99,5.09,3.15l44.47,99.21c.81,1.85-.05,4.01-1.89,4.77-.27.09-.59.23-.86.36-16.65,7.11-30.97,18.64-41.5,33.18-.9,1.31-2.48,1.71-3.83,1.26-.09,0-.23-.04-.32-.09-.45-.09-.9-.32-1.3-.68-.9.86-2.21,1.17-3.33.81-.9-.09-1.8-.59-2.38-1.44-8.6-11.93-19.76-21.88-32.59-28.99-1.71-.95-3.42-1.85-5.18-2.66-1.04-.5-2.07-.95-3.11-1.4-.27-.14-.58-.27-.86-.36-1.85-.77-2.7-2.93-1.89-4.77ZM295.02,166.46c-13.5,5.85-34.12,14.99-50.19,26.56-34.3,24.31-61.58,57.17-78.77,94.84-.99,2.21-2.88,2.7-4.14,2.79-1.26-.09-3.15-.59-4.14-2.79-17.15-37.68-44.38-70.54-78.59-94.84-16.07-11.57-36.64-20.71-50.1-26.56-2.16-.95-2.61-2.7-2.61-4.01s.58-2.79,2.61-4.01c14.4-8.42,47.58-31.87,60.32-40.6,2.88-1.98,6.44,1.17,5,4.41l-19.4,24.89c-4.55,5.9-7.52,8.91-7.92,14.58-.05,9.05,6.39,15.3,14.94,17.24.63.13,1.22.13,2.25.32,28.63,4.28,55.73,34.98,60.72,62.93,1.53,8.46,8.6,14.72,16.92,14.9,8.33-.18,15.44-6.44,16.93-14.9,5.04-27.95,32.19-58.65,60.86-62.93,1.04-.18,1.67-.18,2.25-.32,8.55-1.94,15.04-8.19,14.99-17.24-.41-5.67-3.42-8.69-7.92-14.58l-19.45-24.89c-1.44-3.24,2.12-6.39,5-4.41,12.74,8.73,46,32.19,60.41,40.6,2.03,1.22,2.61,2.7,2.61,4.01s-.45,3.06-2.57,4.01Z"/>
      <path class="cls-2" d="M208.73,155.75c13.28,6.3-7.48,8.82-13.73,10.8-8.09,9.19-20.94,12.75-28.13,22.69-.81,1.17-2.21,1.62-3.47,1.4-.09,0-.23-.04-.32-.09-.45-.09-.9-.32-1.3-.68-.09-.05-.23-.18-.32-.27-.81.86-1.94,1.22-3.02,1.08-.9-.09-1.8-.59-2.38-1.44-8.6-11.93-19.76-21.88-32.59-28.99-1.71-.95-3.42-1.85-5.18-2.66-1.31-.63-2.66-1.26-4.01-1.85,23.41-11.57,40.69-33.54,45.6-59.91.18-.86.9-1.22,1.58-1.13.67-.09,1.39.27,1.57,1.13,4.91,26.38,22.19,48.35,45.69,59.91Z"/>
      <path class="cls-1" d="M187.47,176.47c-11.41,3.63-20.43,12.71-24.04,24.26-.49,1.62-2.8,1.62-3.29,0-3.57-11.65-12.63-20.84-24.12-24.48-.81-.26-1.22-.97-1.22-1.69,0-.74.41-1.45,1.24-1.71,11.41-3.61,20.43-12.71,24.02-24.24.51-1.62,2.82-1.62,3.31,0,3.57,11.63,12.63,20.82,24.1,24.48,1.65.52,1.62,2.85,0,3.37Z"/>
    </g>
    <g>
      <path class="cls-1" d="M344.8,206.86c2.56-.8,2.88-1.92,3.68-5.28,1.76-15.53,1.76-28.34,1.76-42.26,0-12.01-.16-24.01-.48-27.06-.48-4.96-.8-6.08-4.64-7.52-3.2-1.12-4.32-2.08-4.32-7.52,0-5.76,2.72-7.2,11.21-7.2,18.09,0,31.7-.8,46.59-.8,16.33,0,29.94,1.12,40.66,10.73,8.32,7.36,13.61,16.49,13.61,29.3,0,23.05-20.17,30.58-39.86,30.58-9.29,0-13.93-1.6-18.41-1.6-1.6,0-2.24,1.12-2.24,5.6,0,5.28,0,12.65,3.84,19.21,1.44,2.72,3.84,3.04,8.65,3.36,7.36.48,8.97,4,8.97,9.29,0,4.8-2.24,6.4-6.72,6.4-5.6,0-19.37-.48-29.78-.48-12.81,0-21.93.48-28.5.48s-9.45-2.56-9.45-8.97c0-4.16,1.12-4.96,5.44-6.24ZM391.07,152.91c.32,6.56.8,8,7.2,8,7.84,0,13.13-5.76,13.13-16.33,0-7.2-7.36-16.65-16.49-16.65-3.36,0-4.32,1.44-4.32,9.93,0,5.28.32,10.25.48,15.05Z"/>
      <path class="cls-1" d="M462.95,208.31c1.44-.32,3.52-2.72,4-5.44,1.28-8,1.28-15.05,1.28-23.37,0-14.25-.16-28.98-.8-43.07-.32-6.72-.48-8.17-3.84-10.25-3.52-2.24-4.8-1.44-4.8-6.72,0-7.36,32.18-15.53,38.9-15.53,3.68,0,5.92,2.4,5.92,6.24,0,4.8-.64,13.77-.64,20.33v16.33c0,.48.48.96.96.96.96,0,1.76-.8,2.56-1.44,9.29-6.72,14.57-8.97,27.86-8.97,11.85,0,21.13,6.56,24.65,17.77,2.24,7.04,1.28,31.38,2.24,44.35.48,5.76,2.24,7.2,5.44,8.8,3.2,1.28,3.68,1.76,3.68,6.72,0,5.92-1.6,7.04-7.53,7.04-4.48,0-11.85-.48-19.69-.48-7.21,0-12.17.48-14.73.48-6.24,0-9.77-.48-9.77-7.36,0-3.52.8-5.12,4-6.4,2.72-1.12,4.32-4.64,4.32-10.41v-16.65c0-14.41-4.48-23.69-16.49-23.69-5.6,0-6.72,2.24-7.2,6.24,0,13.45,0,22.57.96,36.82.32,3.84.96,5.44,4,7.21,2.08,1.12,4.16,2.56,4.16,7.52,0,3.52-1.44,6.72-4,6.72-5.6,0-14.73-.48-23.38-.48-8.16,0-16.65.48-21.61.48-4,0-4.96-2.24-4.96-5.76,0-4.96,1.6-7.36,4.48-8Z"/>
      <path class="cls-1" d="M624.01,135.78c24.33,0,44.67,18.25,44.67,41.46,0,29.3-19.85,47.71-47.23,47.71-32.5,0-44.67-18.89-44.67-43.23,0-28.34,19.05-45.95,47.23-45.95ZM624.49,207.51c4.16,0,7.69-4.96,7.69-11.05,0-24.65-1.28-44.83-11.37-44.83-4.48,0-8.01,5.92-8.01,13.29,0,23.53,1.28,42.59,11.69,42.59Z"/>
      <path class="cls-1" d="M720.87,148.11c6.56-3.68,11.69-11.69,20.81-11.69,8,0,14.57,11.53,14.57,25.61,0,7.21-4.96,13.61-8.64,13.61-9.77,0-13.13-13.29-22.25-13.29-4.48,0-4.96,1.44-5.12,5.6-.16,5.92-.16,8.97-.16,15.37,0,4.96.32,10.25,1.12,14.89.64,3.68,2.24,5.76,6.24,6.72,5.76,1.44,9.93,2.56,9.93,9.77,0,4-2.72,7.36-6.08,7.36-7.04,0-16.01-.48-25.62-.48s-21.77.48-25.94.48c-2.88,0-4.16-3.04-4.16-6.56,0-4.64.8-7.53,4.48-9.45,2.72-1.44,3.52-3.52,3.84-8,.32-4.8.64-9.77.64-14.73,0-7.2,0-9.61-.32-16.33-.16-2.72-2.08-6.08-4.96-6.88-2.24-.64-4.16-3.04-4.16-5.44,0-3.2,2.08-6.4,4.48-7.68,7.52-4,33.3-11.05,36.5-11.05,2.4,0,4.32,1.92,4.32,4.16,0,3.36,0,4.8.48,8Z"/>
      <path class="cls-1" d="M769.06,144.75c13.13-4,32.34-9.29,36.5-9.29,2.24,0,3.52,2.08,3.52,4.16,0,1.12-.32,5.28-.64,11.69-.16,4.8-.48,10.89-.48,18.09,0,11.53,0,23.37.16,27.38.16,5.44.32,8.49,3.36,10.73,3.84,2.88,6.24,1.76,6.24,8,0,3.68-2.72,6.56-7.04,6.56-6.72,0-12.01-.48-21.93-.48-6.56,0-18.57.48-23.7.48-2.72,0-4-3.68-4-6.4,0-7.53,4.16-6.56,6.56-8.65,1.92-1.76,2.4-3.84,3.36-12.81.48-4.8.64-18.09.64-22.57,0-3.36,0-10.09-2.72-12.01-3.52-2.4-7.21-3.36-7.21-7.68,0-2.72,2.72-5.76,7.37-7.21ZM797.4,107.77c5.76,0,10.41,4.16,10.41,9.29,0,8-11.53,15.69-21.29,15.69-6.4,0-10.09-2.08-10.09-6.88,0-6.72,8.33-18.09,20.97-18.09Z"/>
      <path class="cls-1" d="M907.07,167.96c0,6.4-.8,17.93-.8,22.09,0,5.76,0,10.57,2.72,10.57,3.84,0,4.8-1.28,6.88-1.28,1.44,0,2.72,1.76,2.72,3.84,0,12.97-17.13,21.45-36.34,21.45-8.96,0-8.32-9.12-11.21-9.12-3.36,0-7.52,9.45-24.65,9.29-15.21.16-22.25-7.68-22.25-20.49,0-16.81,11.69-25.13,40.67-31.54,5.28-1.12,5.28-1.92,5.28-7.52,0-11.05-1.44-11.69-8.32-11.69-6.24,0-10.57,2.24-13.77,5.12-5.92,5.44-8.33,13.13-14.09,13.13-4.64,0-7.53-7.36-7.53-12.81,0-12.01,15.69-21.93,47.71-22.89,24.49,0,32.98,6.56,32.98,31.86ZM863.2,204.94c2.56,0,5.44-2.08,6.4-4.64,1.28-3.36,1.44-7.37,1.44-11.05,0-2.24-.48-3.36-1.92-3.36-7.04,0-12.81,5.76-12.81,12.97,0,3.36,3.04,6.08,6.88,6.08Z"/>
    </g>
    <path class="cls-1" d="M954.21,113.4c-11.41,3.63-20.43,12.71-24.04,24.26-.49,1.62-2.8,1.62-3.29,0-3.57-11.65-12.63-20.84-24.12-24.48-.81-.26-1.22-.97-1.22-1.69,0-.74.41-1.45,1.24-1.71,11.41-3.61,20.43-12.71,24.02-24.24.51-1.62,2.82-1.62,3.31,0,3.57,11.63,12.63,20.82,24.1,24.48,1.65.52,1.62,2.85,0,3.37Z"/>
  </g>
</svg>