<?xml version="1.0" encoding="UTF-8"?>
<svg id="Calque_2" data-name="Calque 2" xmlns="http://www.w3.org/2000/svg" viewBox="0 0 1421.74 433">
  <defs>
    <style>
      .cls-1 {
        fill: #fff;
      }

      .cls-2 {
        fill: #192ca5;
      }

      .cls-3 {
        fill: #e7f4f0;
      }

      .cls-4 {
        fill: #be1f0f;
      }
    </style>
  </defs>
  <g id="Calque_1-2" data-name="Calque 1">
    <g>
      <path class="cls-1" d="M753.79,206.1c0,32.21-9.62,60.66-28.88,85.36-20.22,25.91-45.89,40.86-77,44.86,4.48,13.44,12.41,25.61,23.79,36.5.73.73,1.09,1.51,1.09,2.36,0,3.27-4.12,5.2-12.35,5.81.12,0-5.33,0-16.34,0-14.65,0-23.06-.24-25.24-.73-6.17-1.45-9.62-16.23-10.35-44.31-30.87-6.05-55.75-21.43-74.64-46.13-18.52-23.97-27.79-51.88-27.79-83.72,0-35.47,11.68-66.22,35.05-92.26,24.09-27,53.69-40.5,88.81-40.5s64.89,13.5,88.99,40.5c23.25,26.03,34.87,56.78,34.87,92.26ZM710.39,206.1c0-23.73-7.45-44.31-22.34-61.75-15.62-18.28-35.11-27.42-58.48-27.42s-42.31,9.32-57.93,27.97c-14.65,17.56-21.97,38.14-21.97,61.75s7.32,44.07,21.97,61.75c15.5,18.77,34.81,28.15,57.93,28.15s43.04-9.32,58.66-27.97c14.77-17.67,22.16-38.5,22.16-62.47Z"/>
      <path class="cls-1" d="M1008.22,331.95c0,1.45-1.45,2.18-4.36,2.18-2.3,0-5.66-.18-10.08-.54-4.42-.36-7.78-.54-10.08-.54s-5.75.18-10.35.54c-4.6.36-8.05.54-10.35.54-3.39,0-7.72-9.17-12.98-27.51-5.27-18.34-10.62-27.63-16.07-27.88-4.48-.24-16.16-.36-35.05-.36h-28.69c-19.98,0-31.36.12-34.14.36-4.36.36-8.99,9.69-13.89,27.97-4.9,18.28-8.69,27.42-11.35,27.42h-40.86c-2.42,0-3.63-.85-3.63-2.54,0-1.21.85-3.93,2.54-8.17l44.49-121.68c3.75-9.81,15.13-38.08,34.14-84.81,3.39-7.75,7.99-19.43,13.8-35.05,1.45-4.6,3.02-6.9,4.72-6.9,2.3,0,5.69.3,10.17.91,4.48.61,7.87.91,10.17.91,2.18,0,5.48-.33,9.9-1,4.42-.66,7.66-1,9.72-1,1.09,0,2.6,2.24,4.54,6.72,2.91,6.78,17.25,43.29,43.04,109.51,36.44,93.1,54.66,140.08,54.66,140.93ZM923.59,231.7c0-3.51-5.45-19.25-16.34-47.22-10.53-27.12-17.98-44.92-22.34-53.39-25.06,63.92-37.59,97.4-37.59,100.43,0,4.12,4.6,6.54,13.8,7.26.48.12,6.42.18,17.8.18h18.71c17.31,0,25.97-2.42,25.97-7.26Z"/>
      <path class="cls-1" d="M1225.06,332.68c0,.97-.97,1.45-2.91,1.45-2.3,0-5.81-.18-10.53-.54s-8.24-.54-10.53-.54c-2.54,0-6.33.18-11.35.54-5.03.36-8.81.54-11.35.54-2.79,0-4.9-1.51-6.36-4.54-3.88-8.23-14.89-33.72-33.05-76.46-1.82-4.36-6.24-7.02-13.26-7.99-1.58-.12-7.08-.18-16.53-.18-16.71,0-26.64.24-29.78.73-2.54.36-3.81,3.45-3.81,9.26,0,8.48.39,21.16,1.18,38.05.79,16.89,1.18,29.51,1.18,37.87,0,2.54-1.21,3.81-3.63,3.81s-6.08-.27-10.99-.82-8.63-.82-11.17-.82c-2.06,0-5.21.18-9.44.54-4.24.36-7.39.54-9.44.54-3.03,0-4.54-1.39-4.54-4.18,0-13.44.64-33.63,1.91-60.57,1.27-26.94,1.91-47.13,1.91-60.57,0-38.26-1.39-79.06-4.18-122.4l-.18-2.91c-.12-2.42,2.42-3.63,7.63-3.63,10.41,0,26-.27,46.76-.82,20.76-.54,36.29-.82,46.58-.82,26.88,0,48.43,6.42,64.65,19.25,17.92,14.17,26.88,34.26,26.88,60.29,0,17.92-2.42,32.02-7.26,42.31-5.08,10.9-14.53,21.25-28.33,31.06-2.3,1.57-3.45,3.09-3.45,4.54,0,1.7,7.23,17.8,21.7,48.31,14.47,30.51,21.7,46.74,21.7,48.67ZM1175.3,167.96c0-21.91-6.3-36.56-18.89-43.95-9.32-5.45-26.09-8.17-50.3-8.17-19.61,0-29.6,1.57-29.97,4.72-.85,6.54-1.27,24.03-1.27,52.48v34.69c.36.24,1.15.49,2.36.73,2.18.24,5.75.54,10.71.91,11.5.61,23.91.91,37.23.91,33.42,0,50.12-14.1,50.12-42.31Z"/>
      <path class="cls-1" d="M1421.74,297.63c0,1.94-.49,4.72-1.45,8.35-1.09,4.6-1.76,7.39-2,8.35-.36,4.36-1.21,10.71-2.54,19.07-.61,2.18-2.18,3.27-4.72,3.27-1.21,0-3.51-.24-6.9-.73-14.89-2.18-37.96-3.27-69.19-3.27-8.84,0-22.16.24-39.95.73-17.8.49-31.12.73-39.95.73-4,0-5.99-1.75-5.99-5.27,0-13.56.75-33.93,2.27-61.11,1.51-27.18,2.27-47.55,2.27-61.11s-.73-39.53-2.18-77.18c-.24-9.68-.91-24.15-2-43.4l-.18-2.54c-.12-2.78,1.45-4.18,4.72-4.18,8.47,0,21.19.24,38.14.73,16.95.49,29.66.73,38.14.73s20.25-.24,36.41-.73c16.16-.48,28.3-.73,36.41-.73,5.69,0,8.78,1.76,9.26,5.27,2.54,15.98,3.81,25.91,3.81,29.78,0,2.79-1.33,4.18-4,4.18-10.29,0-25.88-.57-46.76-1.73-20.88-1.15-36.59-1.72-47.13-1.72-9.93,0-16.19,1.33-18.8,4-2.6,2.66-3.9,9.26-3.9,19.79v27.06c0,7.39.18,11.69.54,12.89,1.09,3.75,4.24,5.63,9.44,5.63,1.45,0,3.51-.06,6.17-.18h6.17c23.73,0,45.04-.42,63.93-1.27,7.38-.24,16.1-.85,26.15-1.82,2.54-.24,3.81.85,3.81,3.27,0,3.88-.45,9.81-1.36,17.8-.91,7.99-1.36,13.98-1.36,17.98,0,2.18-1.82,3.27-5.45,3.27-1.45,0-6.84-.42-16.16-1.27-6.78-.73-22.04-1.09-45.76-1.09-19.98,0-32.63.24-37.96.73-4.84.36-7.63,2.91-8.35,7.63.12-.85.18,3.81.18,13.98v26.88c0,12.59,1.93,20.46,5.81,23.61,3.02,2.54,10.59,3.81,22.7,3.81l19.98-.18c8.47,0,32.26-1.45,71.37-4.36l2.72-.18c2.42-.24,3.63,1.27,3.63,4.54Z"/>
    </g>
    <g>
      <path class="cls-4" d="M440.53,225.44v-19.1c0-8.68-11.3-12.34-16.55-5.35-8.63,11.51-20.74,28.69-89.18,24.44-105.52-6.54-105.73,77.8-105.73,77.8v51.87s.49,77.8,106.22,77.8,105.73-78.28,105.73-78.28v-51.87l-.49-77.32ZM366.85,361.53c-3.57-4.22-12.37-9.66-34.01-9.92-.83-.01-1.63-.02-2.42-.04-19.26-.41-34.47-14.31-34.05-31.03l.04-1.75c.39-15.21,13.65-27.95,31.08-29.52,1.7-.15,3.48-.25,5.35-.28.54,0,1.08-.01,1.61,0,19.27.18,34.5,14.31,34.07,31.03l.67,40.85c.02,1.1-1.59,1.56-2.34.67Z"/>
      <path class="cls-3" d="M106.22,225.53c-68.44,4.24-80.55-12.93-89.18-24.44-5.24-6.99-16.55-3.34-16.55,5.35v19.1l-.49,77.32v51.87s0,78.28,105.73,78.28,106.22-77.8,106.22-77.8v-51.87s-.21-84.34-105.73-77.8ZM109.88,350.77c-.77.02-1.57.03-2.38.04-21.23.26-29.87,5.59-33.37,9.74-.74.87-2.32.42-2.3-.66l.66-40.08c-.42-16.41,14.53-30.27,33.44-30.45.52,0,1.04,0,1.58,0,1.84.03,3.59.13,5.25.28,17.1,1.55,30.12,14.04,30.49,28.96l.04,1.72c.42,16.4-14.52,30.04-33.42,30.45Z"/>
      <path class="cls-3" d="M334.8,1c-105.73,0-105.73,78.38-105.73,78.38v51.93l.49,77.41v19.12c0,8.69,11.3,12.35,16.55,5.35,8.63-11.53,20.74-28.72,89.18-24.47,105.52,6.55,105.73-77.89,105.73-77.89v-51.93s-.49-77.89-106.22-77.89ZM367.52,115.17c.42,16.4-14.61,30.25-33.64,30.43-.52,0-1.05,0-1.59,0-1.85-.03-3.61-.13-5.28-.28-17.2-1.55-30.3-14.04-30.68-28.95l-.04-1.71c-.42-16.4,14.6-30.03,33.61-30.43.78-.02,1.58-.03,2.39-.04,21.36-.26,30.04-5.59,33.57-9.73.74-.87,2.33-.42,2.31.66l-.66,40.06Z"/>
      <path class="cls-2" d="M106.22,0C.49,0,0,77.8,0,77.8v51.87s.21,84.34,105.73,77.8c68.44-4.24,80.55,12.93,89.18,24.44,5.24,6.99,16.55,3.34,16.55-5.35v-19.1l.49-77.32v-51.87S211.95,0,106.22,0ZM144.25,115.43c-.38,14.93-13.39,27.44-30.49,28.99-1.67.15-3.42.25-5.25.28-.53,0-1.06.01-1.58,0-18.91-.18-33.85-14.05-33.44-30.47l-.66-40.11c-.02-1.08,1.56-1.53,2.3-.66,3.51,4.14,12.14,9.48,33.37,9.74.81,0,1.6.02,2.38.04,18.9.41,33.83,14.06,33.42,30.47l-.04,1.72Z"/>
    </g>
  </g>
</svg>