<?xml version="1.0" encoding="UTF-8"?>
<svg id="Calque_1" xmlns="http://www.w3.org/2000/svg" viewBox="0 0 806.4 465.88">
  <defs>
    <style>
      .cls-1 {
        fill: #f8f7f3;
      }

      .cls-2 {
        fill: #ffb646;
      }
    </style>
  </defs>
  <path class="cls-1" d="M322.8,124.31c3.55-2.21,8.68-9.12,13.3-14.04,9.28-9.88,11.77-27.6,9.73-41-3.11-20.38-22.44-46.73-84.22-27.34,0,0-109.15,37.28-61.94,159.83,1.93,5.01,8.63,12.61,12.03,17.06,7.48,9.8,20.24,22.96,45.11,39.83,21.89,16.95,52.58,52.46,32.38,81.15-5.35,7.61-10.81,10.28-21.8,11.94-10.67,1.61-29.28-7.37-38.64-14.37-4.56-3.41-10.33-5.04-15.91-3.9-2.97.6-5.61,1.77-7.14,3.5-6.41,7.27-14.82,22.36,7.02,40.4,17.07,14.1,40.38,18.67,61.57,12.26,30.79-9.32,58.44-36.29,54.24-97.04-1.26-18.22-8.01-32.77-31.73-55-33.79-31.67-79.96-50.42-58.1-121.03,5.59-15.97,14.83-22.07,26.1-30.29,3.94-2.87,17.76-10.16,23.15-11.82,7.61-2.34,17.03-3.49,20.19,4.53,2.39,6.07.74,12.86-3.18,18.07-6.77,8.98-7.3,22.82,2.08,29.36,4.18,2.91,10.96.9,15.76-2.09Z"/>
  <path class="cls-1" d="M363.78,256c-.41,2.08-3.47,1.79-3.52-.33l-1.63-67.59c-.07-9.66-1.97-16-18.49-14.58-4.72.41-7.13.57-10.53,2.6-2.18,1.3-3.96,4.44-3.96,6.98.09,31.6,4.16,156.05,21.16,161.5,32.75,6.4,31.18-29.38,32.16-67.52.09-3.68,2.74-4.19,4.22-4.23.8-.02,2.58.28,3.4.94.99.8,1.51,1.84,1.48,3.39-1.27,55.35,7.1,60.44,13.18,66.84,35.43,24.59,55.85-130.38,51.56-166.47-.32-2.71-2.8-4.65-5.52-4.47-13.91.92-14.01,1.38-16.73,6.14,0,0-9.05,58.36-13.19,88.31-.21,1.5-2.35,1.6-2.67.12-5.65-26.01-4.28-80.46-23.95-81.9-20.52-1.5-22.86,49.31-26.95,70.25Z"/>
  <path class="cls-1" d="M586.92,224.91c1.47-25.74,6.12-54.86,14.78-62.8,7.96-7.31,24.87-.25,22.66,11.33-1.45,7.55-53.02,202.78-103.12,206.67-3.49.27-6.93-1.11-9.26-3.73s-3.74-5.81-4.11-10.14c-.69-8.19,2.77-16.17,9.03-21.5,14.72-12.53,30.56-31.39,41.58-59.95,2.62-6.78,4.16-11.42,1.62-18.23-1.86-4.99-2.44-4.3-5.69-13.92-1.71-5.06-3.72-9.39-6.33-20.25-5.27-21.93-7.38-51.46-6.33-61,.56-5.05,2.34-8.71,6.12-9.86,5.68-1.73,10.71-3.48,16.03,2.11,2.57,2.69,4.13,9.82,5.48,13.29,1.9,4.85,6.33,36.06,9.66,46.46.01.04,0,.07.01.11.95,4.62,7.71,4.28,7.87,1.42Z"/>
  <path class="cls-1" d="M537.11,183.6c-.51-1.87-1.21-3.74-2.16-5.44-5.35-9.67-11.68-14.61-28.36-14.41-7.31.09-10.73.86-16.2,5.7-1.07.95-1.32,1.32-2.38,2.06,0,0-.02.01-.02.02-.92.62-2.16-.08-2.16-1.19.01-3.86-.07-9.42,0-16.27.09-9.02.88-9.29-4.03-13.14-2.6-2.04-6.71-2.89-11.2-2.3-6.39.84-11.63,6.98-11.71,13.43-1,82.43-11.97,152.03-11.11,179.48.18,5.68,2.74,10.7,6.16,13.92,3.22,3.03,18.55,1.84,21.18.2,4.6-2.88,5.59-4.15,7.04-68.72.06-2.8,2.49-4.94,5.27-4.63,1.47.17,3.78.24,5.67.5,20.93,2.83,30.41-10.1,32.75-12.69,9.69-10.7,24.3-28.31,11.26-76.52ZM520.13,221.36c-.16.14-3.16,2.67-3.38,2.72-6.81,4.85-18.88,13.85-22.76,16.93-3.01,2.4-5.77.79-5.77-3.83v-38.31c0-4.61,1.85-6,4.93-4.35.04.05.92.64.95.69,4.97,4.11,17.64,12.35,23.26,17.01.75.62,2.17,2.01,2.77,2.69,1.66,1.86,2.1,4.65,0,6.45Z"/>
  <circle class="cls-2" cx="472.56" cy="100.7" r="19.25"/>
</svg>